<?xml version="1.0" standalone="no"?><!DOCTYPE svg PUBLIC "-//W3C//DTD SVG 1.1//EN" "http://www.w3.org/Graphics/SVG/1.1/DTD/svg11.dtd"><svg t="1597122697680" class="icon" viewBox="0 0 1024 1024" version="1.1" xmlns="http://www.w3.org/2000/svg" p-id="7352" width="128" height="128" xmlns:xlink="http://www.w3.org/1999/xlink"><defs><style type="text/css"></style></defs><path d="M151.190588 458.691765a7.228235 7.228235 0 0 1 10.842353-2.710589l127.939765 99.026824a7.168 7.168 0 0 1-2.710588 12.649412l-66.258824 16.444235a308.163765 308.163765 0 0 0 16.504471 48.609882 5.421176 5.421176 0 0 1 1.987764 2.349177 306.898824 306.898824 0 0 0 165.044706 158.599529 305.995294 305.995294 0 0 0 235.459765-2.048 305.212235 305.212235 0 0 0 164.864-167.875764c4.698353-11.625412 8.673882-23.491765 11.866353-35.538824l-65.957647-17.648941a7.168 7.168 0 0 1-2.409412-12.649412l129.505882-96.798118a7.228235 7.228235 0 0 1 10.842353 2.891295l63.849412 148.60047a7.107765 7.107765 0 0 1-8.372706 9.637647l-61.801411-16.564706c-5.662118 21.142588-13.191529 41.743059-22.40753 61.560471l-0.602353 1.807059A375.446588 375.446588 0 0 1 155.166118 600.666353l-62.102589 15.480471a7.107765 7.107765 0 0 1-8.252235-9.818353zM518.625882 98.605176a149.504 149.504 0 1 0 0 298.947765 149.504 149.504 0 0 0 0-298.947765z m0 74.390589a75.113412 75.113412 0 1 1 0 150.166588 75.113412 75.113412 0 0 1 0-150.166588z" p-id="7353" fill="#3eaf7c"></path><path d="M555.851294 368.700235V849.317647H481.460706V368.64z" p-id="7354" fill="#3eaf7c"></path></svg>